<svg width="18" height="29" viewBox="0 0 18 29" fill="none" xmlns="http://www.w3.org/2000/svg">
<path d="M6.64345 14.4259L16.3784 4.69094C16.8906 4.1757 17.1781 3.47871 17.1781 2.7522C17.1781 2.02568 16.8906 1.32869 16.3784 0.813445C16.1228 0.555692 15.8186 0.351107 15.4835 0.211493C15.1484 0.0718795 14.789 0 14.4259 0C14.0629 0 13.7035 0.0718795 13.3684 0.211493C13.0332 0.351107 12.7291 0.555692 12.4734 0.813445L0.813445 12.4734C0.555692 12.7291 0.351109 13.0332 0.211495 13.3684C0.0718808 13.7035 0 14.0629 0 14.4259C0 14.789 0.0718808 15.1484 0.211495 15.4835C0.351109 15.8186 0.555692 16.1228 0.813445 16.3784L12.4734 28.1759C12.7304 28.4308 13.0351 28.6325 13.3702 28.7693C13.7053 28.9062 14.064 28.9755 14.4259 28.9734C14.7879 28.9755 15.1466 28.9062 15.4817 28.7693C15.8167 28.6325 16.1215 28.4308 16.3784 28.1759C16.8906 27.6607 17.1781 26.9637 17.1781 26.2372C17.1781 25.5107 16.8906 24.8137 16.3784 24.2984L6.64345 14.4259Z" fill="white"/>
</svg>
